<svg id="Icons" xmlns="http://www.w3.org/2000/svg" viewBox="0 0 512 512"><defs><style>.cls-3{fill:#e52e44}.cls-4{fill:#fa4654}.cls-5{fill:#fb626e}.cls-6{fill:#fff}.cls-7{fill:#ebd9ea}.cls-8{fill:#f39e22}.cls-9{fill:#f9c744}.cls-12{fill:#fbd9a3}</style></defs><circle cx="256" cy="256" r="255.98" style="fill:#fbdb58"/><path d="M512 255.76A255.63 255.63 0 0 0 408.56 50.44C295-33.81 134.69-10.08 50.44 103.44a254.76 254.76 0 0 0-49.93 136 76.89 76.89 0 0 1 14.24 6.88c23.84 14.74 42 41.9 69.91 44.44 19.15 1.75 37.29-9.24 51.1-22.62s24.87-29.51 39.4-42.12a112.53 112.53 0 0 1 157.7 10c14.17 15.89 26.53 37.44 47.68 40 28.75 3.44 51.22-31.63 80-28.95 9.3.87 17.72 5.66 26.73 8a54.5 54.5 0 0 0 24.73.69z" style="fill:#efb732"/><path class="cls-3" d="m301.67 198.81-2.13 19.13-6.92 62.33a24.07 24.07 0 0 1-23.92 21.41h-25.4a24.07 24.07 0 0 1-23.92-21.41l-6.92-62.33-2.13-19.13z"/><path class="cls-4" d="M299.54 217.94c-9.43 5.31-25.41 8.79-43.54 8.79a135.22 135.22 0 0 1-15.68-.9 9 9 0 0 0-10 10l4.94 44.44a24.06 24.06 0 0 0 23.92 21.41h9.55a24.07 24.07 0 0 0 23.92-21.41z"/><ellipse class="cls-5" cx="284.69" cy="242.89" rx="15.37" ry="8.83" transform="rotate(-87.23 284.672 242.889)"/><ellipse class="cls-5" cx="283.27" cy="272.19" rx="9.19" ry="5.04" transform="rotate(-87.23 283.253 272.192)"/><ellipse class="cls-6" cx="256" cy="198.39" rx="52.48" ry="19.9"/><ellipse class="cls-7" cx="256" cy="197.67" rx="45.67" ry="13.42"/><path class="cls-8" d="M217.26 204.77c8.07 3.79 22.4 6.32 38.74 6.32s30.67-2.53 38.74-6.32c-7.56-4-22.07-6.7-38.74-6.7s-31.18 2.71-38.74 6.7z"/><path class="cls-9" d="M247.36 210.85c-3.42-.2-6.72-.5-9.82-.9a5 5 0 0 1 9.82.9zM284.69 206.52a5.07 5.07 0 0 1-.28 1.66c-2.62.61-5.46 1.14-8.49 1.57a4.93 4.93 0 0 1-1.2-3.23 5 5 0 1 1 10 0z"/><circle class="cls-9" cx="255.38" cy="202.5" r="3.25"/><path class="cls-9" d="M271.79 208.25a3.2 3.2 0 0 1-.77 2.09c-1.49.16-3 .29-4.58.39a3.21 3.21 0 0 1-1.16-2.48 3.26 3.26 0 0 1 6.51 0z"/><circle class="cls-9" cx="233.67" cy="204.41" r="2.46"/><path class="cls-3" d="m433.5 198.81-2.13 19.13-6.92 62.33a24.07 24.07 0 0 1-23.92 21.41h-25.4a24.07 24.07 0 0 1-23.92-21.41l-6.92-62.33-2.13-19.13z"/><path class="cls-4" d="M431.37 217.94c-9.42 5.31-25.41 8.79-43.54 8.79a135.22 135.22 0 0 1-15.68-.9 9 9 0 0 0-10 10l4.94 44.44A24.07 24.07 0 0 0 391 301.68h9.55a24.07 24.07 0 0 0 23.92-21.41z"/><ellipse class="cls-5" cx="416.52" cy="242.89" rx="15.37" ry="8.83" transform="rotate(-87.23 416.5 242.895)"/><ellipse class="cls-5" cx="415.1" cy="272.19" rx="9.19" ry="5.04" transform="rotate(-87.23 415.075 272.194)"/><ellipse class="cls-6" cx="387.83" cy="198.39" rx="52.48" ry="19.9"/><ellipse class="cls-7" cx="387.83" cy="197.67" rx="45.67" ry="13.42"/><path class="cls-8" d="M349.09 204.77c8.07 3.79 22.4 6.32 38.74 6.32s30.67-2.53 38.74-6.32c-7.56-4-22.07-6.7-38.74-6.7s-31.18 2.71-38.74 6.7z"/><path class="cls-9" d="M379.2 210.85c-3.43-.2-6.72-.5-9.83-.9a5 5 0 0 1 9.83.9zM416.52 206.52a4.82 4.82 0 0 1-.28 1.66c-2.62.61-5.46 1.14-8.49 1.57a4.93 4.93 0 0 1-1.2-3.23 5 5 0 1 1 10 0z"/><circle class="cls-9" cx="387.21" cy="202.5" r="3.25"/><path class="cls-9" d="M403.62 208.25a3.19 3.19 0 0 1-.76 2.09q-2.25.24-4.59.39a3.21 3.21 0 0 1-1.16-2.48 3.26 3.26 0 0 1 6.51 0z"/><circle class="cls-9" cx="365.5" cy="204.41" r="2.46"/><path class="cls-3" d="m169.84 198.81-2.13 19.13-6.93 62.33a24.06 24.06 0 0 1-23.91 21.41h-25.4a24.07 24.07 0 0 1-23.92-21.41l-6.92-62.33-2.13-19.13z"/><path class="cls-4" d="M167.71 217.94c-9.43 5.31-25.41 8.79-43.54 8.79a135.22 135.22 0 0 1-15.68-.9 9 9 0 0 0-10 10l4.94 44.44a24.06 24.06 0 0 0 23.91 21.41h9.56a24.06 24.06 0 0 0 23.91-21.41z"/><ellipse class="cls-5" cx="152.86" cy="242.89" rx="15.37" ry="8.83" transform="rotate(-87.23 152.84 242.887)"/><ellipse class="cls-5" cx="151.44" cy="272.19" rx="9.19" ry="5.04" transform="rotate(-87.23 151.425 272.185)"/><ellipse class="cls-6" cx="124.17" cy="198.39" rx="52.48" ry="19.9"/><ellipse class="cls-7" cx="124.17" cy="197.67" rx="45.67" ry="13.42"/><path class="cls-8" d="M85.43 204.77c8.07 3.79 22.4 6.32 38.74 6.32s30.67-2.53 38.74-6.32c-7.56-4-22.07-6.7-38.74-6.7s-31.17 2.71-38.74 6.7z"/><path class="cls-9" d="M115.53 210.85c-3.43-.2-6.72-.5-9.83-.9a5 5 0 0 1 9.83.9zM152.86 206.52a4.83 4.83 0 0 1-.29 1.66c-2.61.61-5.45 1.14-8.49 1.57a5 5 0 1 1 8.78-3.23z"/><circle class="cls-9" cx="123.55" cy="202.5" r="3.25"/><path class="cls-9" d="M140 208.25a3.2 3.2 0 0 1-.77 2.09c-1.49.16-3 .29-4.59.39a3.25 3.25 0 1 1 5.36-2.48z"/><circle class="cls-9" cx="101.84" cy="204.41" r="2.46"/><path class="cls-3" d="m380.08 263-2.28 20.51-7.43 66.88a25.81 25.81 0 0 1-25.66 23h-27.25a25.83 25.83 0 0 1-25.66-23l-7.43-66.88-2.28-20.51z"/><path class="cls-4" d="M377.8 283.55c-10.11 5.7-27.26 9.44-46.71 9.44a143.27 143.27 0 0 1-16.82-1 9.71 9.71 0 0 0-10.77 10.73l5.3 47.68a25.82 25.82 0 0 0 25.66 23h10.25a25.81 25.81 0 0 0 25.66-23z"/><ellipse class="cls-5" cx="361.87" cy="310.33" rx="16.49" ry="9.47" transform="rotate(-87.23 361.842 310.328)"/><ellipse class="cls-5" cx="360.35" cy="341.76" rx="9.86" ry="5.41" transform="rotate(-87.1 360.9 341.315)"/><ellipse class="cls-6" cx="331.09" cy="262.58" rx="56.3" ry="21.35"/><ellipse class="cls-7" cx="331.09" cy="261.81" rx="48.99" ry="14.39"/><path class="cls-8" d="M289.53 269.43c8.65 4.07 24 6.78 41.56 6.78s32.9-2.71 41.56-6.78c-8.11-4.29-23.68-7.19-41.56-7.19s-33.45 2.9-41.56 7.19z"/><path class="cls-9" d="M321.82 276c-3.68-.21-7.21-.54-10.54-1a5.34 5.34 0 0 1 10.54 1zM361.87 271.31a5 5 0 0 1-.31 1.77c-2.8.66-5.85 1.22-9.11 1.69a5.35 5.35 0 1 1 9.42-3.46z"/><circle class="cls-9" cx="330.42" cy="266.99" r="3.49"/><path class="cls-9" d="M348 273.16a3.49 3.49 0 0 1-.82 2.25c-1.61.16-3.25.3-4.93.41a3.44 3.44 0 0 1-1.23-2.66 3.49 3.49 0 1 1 7 0z"/><circle class="cls-9" cx="307.13" cy="269.04" r="2.64"/><path class="cls-3" d="m240.1 263-2.28 20.51-7.43 66.88a25.81 25.81 0 0 1-25.66 23h-27.25a25.83 25.83 0 0 1-25.66-23l-7.43-66.88-2.28-20.51z"/><path class="cls-4" d="M237.82 283.55c-10.11 5.7-27.26 9.44-46.71 9.44a143.27 143.27 0 0 1-16.82-1 9.71 9.71 0 0 0-10.77 10.73l5.3 47.68a25.82 25.82 0 0 0 25.66 23h10.25a25.81 25.81 0 0 0 25.66-23z"/><ellipse class="cls-5" cx="221.89" cy="310.33" rx="16.49" ry="9.47" transform="rotate(-87.23 221.868 310.318)"/><ellipse class="cls-5" cx="220.37" cy="341.76" rx="9.86" ry="5.41" transform="rotate(-87.23 220.346 341.757)"/><ellipse class="cls-6" cx="191.11" cy="262.58" rx="56.3" ry="21.35"/><ellipse class="cls-7" cx="191.11" cy="261.81" rx="48.99" ry="14.39"/><path class="cls-8" d="M149.54 269.43c8.66 4.07 24 6.78 41.57 6.78s32.9-2.71 41.56-6.78c-8.11-4.29-23.68-7.19-41.56-7.19s-33.45 2.9-41.57 7.19z"/><path class="cls-9" d="M181.84 276c-3.68-.21-7.21-.54-10.54-1a5.34 5.34 0 0 1 10.54 1zM221.89 271.31a5 5 0 0 1-.31 1.77c-2.8.66-5.85 1.22-9.11 1.69a5.35 5.35 0 1 1 9.42-3.46z"/><circle class="cls-9" cx="190.44" cy="266.99" r="3.49"/><path class="cls-9" d="M208.05 273.16a3.49 3.49 0 0 1-.82 2.25c-1.61.16-3.25.3-4.93.41a3.44 3.44 0 0 1-1.23-2.66 3.49 3.49 0 1 1 7 0z"/><circle class="cls-9" cx="167.15" cy="269.04" r="2.64"/><path class="cls-3" d="m309.4 350.76-2.49 22.36-8.09 72.88a28.15 28.15 0 0 1-28 25h-29.7a28.15 28.15 0 0 1-28-25l-8.09-72.89-2.49-22.36z"/><path class="cls-4" d="M306.91 373.12c-11 6.21-29.71 10.29-50.91 10.29a155.5 155.5 0 0 1-18.33-1.06 10.58 10.58 0 0 0-11.73 11.7l5.77 52a28.15 28.15 0 0 0 28 25h11.17a28.15 28.15 0 0 0 28-25z"/><ellipse class="cls-5" cx="289.55" cy="402.3" rx="17.97" ry="10.32" transform="rotate(-87.23 289.52 402.3)"/><ellipse class="cls-5" cx="287.89" cy="436.56" rx="10.75" ry="5.89" transform="rotate(-87.23 287.857 436.556)"/><ellipse class="cls-6" cx="256" cy="350.27" rx="61.36" ry="23.27"/><ellipse class="cls-7" cx="256" cy="349.43" rx="53.4" ry="15.69"/><path class="cls-8" d="M210.7 357.73c9.44 4.43 26.19 7.39 45.3 7.39s35.86-3 45.3-7.39c-8.85-4.67-25.81-7.84-45.3-7.84s-36.45 3.17-45.3 7.84z"/><path class="cls-9" d="M245.9 364.83c-4-.22-7.86-.58-11.49-1.05a5.83 5.83 0 0 1 11.49 1.05zM289.55 359.78a5.41 5.41 0 0 1-.34 1.93c-3.06.72-6.38 1.33-9.92 1.84a5.83 5.83 0 1 1 10.26-3.77z"/><circle class="cls-9" cx="255.27" cy="355.08" r="3.81"/><path class="cls-9" d="M274.46 361.8a3.75 3.75 0 0 1-.89 2.44c-1.75.19-3.54.34-5.37.46a3.8 3.8 0 1 1 6.26-2.9z"/><circle class="cls-9" cx="229.89" cy="357.3" r="2.88"/><path d="M231.59 123.76a36.18 36.18 0 1 1-36.18-36.19 36 36 0 0 1 36.18 36.19z" style="fill:#dd5e26"/><path d="M231.59 123.76a36 36 0 0 1-4.89 18.17 36.19 36.19 0 0 1-49.46-49.47 36.18 36.18 0 0 1 54.35 31.3z" style="fill:#ea792e"/><ellipse class="cls-8" cx="205.98" cy="102.86" rx="8.7" ry="12.83" transform="rotate(-60.19 205.965 102.866)"/><ellipse class="cls-8" cx="220.48" cy="123.19" rx="4.71" ry="8.92" transform="rotate(-11.75 220.477 123.206)"/><path class="cls-12" d="M334.82 76.25a3 3 0 0 1-4.15.58A68.38 68.38 0 0 0 235 90.23a3 3 0 0 1-4.73-3.57 74.32 74.32 0 0 1 104-14.56 3 3 0 0 1 .55 4.15z"/><path class="cls-12" d="M373.05 94.33a3 3 0 0 1-1 .86 3 3 0 0 1-4-1.32A85.53 85.53 0 0 0 253.4 55.68a3 3 0 0 1-2.65-5.29 91.46 91.46 0 0 1 122.58 40.83 3 3 0 0 1-.28 3.11z"/></svg>